<mxfile host="app.diagrams.net" modified="2024-03-30T15:57:20.335Z" agent="Mozilla/5.0 (Windows NT 10.0; Win64; x64) AppleWebKit/537.36 (KHTML, like Gecko) Chrome/123.0.0.0 Safari/537.36 Edg/123.0.0.0" etag="lFLa9Stqr1yC1bE-Mdhu" version="24.2.1" type="github">
  <diagram name="Page-1" id="5mvrxGMz_amPYLSToeGQ">
    <mxGraphModel dx="1148" dy="654" grid="1" gridSize="10" guides="1" tooltips="1" connect="1" arrows="1" fold="1" page="1" pageScale="1" pageWidth="1654" pageHeight="1169" math="0" shadow="0">
      <root>
        <mxCell id="0" />
        <mxCell id="1" parent="0" />
        <mxCell id="6VobQ4EpYaCgMPkBICnF-3" value="Login pake cred database, simpen di cookie buat ngelakuin query dsb." style="rounded=1;whiteSpace=wrap;html=1;arcSize=0;" vertex="1" parent="1">
          <mxGeometry x="180" y="250" width="120" height="60" as="geometry" />
        </mxCell>
        <mxCell id="6VobQ4EpYaCgMPkBICnF-4" value="Back-end" style="rounded=1;whiteSpace=wrap;html=1;" vertex="1" parent="1">
          <mxGeometry x="750" y="130" width="120" height="60" as="geometry" />
        </mxCell>
        <mxCell id="6VobQ4EpYaCgMPkBICnF-5" value="List table, column, dsb" style="rounded=1;whiteSpace=wrap;html=1;arcSize=0;" vertex="1" parent="1">
          <mxGeometry x="20" y="390" width="120" height="60" as="geometry" />
        </mxCell>
        <mxCell id="6VobQ4EpYaCgMPkBICnF-6" value="" style="endArrow=classic;html=1;rounded=0;exitX=0.5;exitY=1;exitDx=0;exitDy=0;entryX=0.5;entryY=0;entryDx=0;entryDy=0;" edge="1" parent="1" source="6VobQ4EpYaCgMPkBICnF-3" target="6VobQ4EpYaCgMPkBICnF-5">
          <mxGeometry width="50" height="50" relative="1" as="geometry">
            <mxPoint x="520" y="480" as="sourcePoint" />
            <mxPoint x="570" y="430" as="targetPoint" />
            <Array as="points">
              <mxPoint x="240" y="330" />
              <mxPoint x="80" y="330" />
            </Array>
          </mxGeometry>
        </mxCell>
        <mxCell id="6VobQ4EpYaCgMPkBICnF-7" value="" style="endArrow=classic;html=1;rounded=0;exitX=0.5;exitY=1;exitDx=0;exitDy=0;entryX=0.5;entryY=0;entryDx=0;entryDy=0;" edge="1" parent="1" source="6VobQ4EpYaCgMPkBICnF-3" target="6VobQ4EpYaCgMPkBICnF-8">
          <mxGeometry width="50" height="50" relative="1" as="geometry">
            <mxPoint x="280" y="450" as="sourcePoint" />
            <mxPoint x="330" y="400" as="targetPoint" />
            <Array as="points">
              <mxPoint x="240" y="330" />
              <mxPoint x="330" y="330" />
            </Array>
          </mxGeometry>
        </mxCell>
        <mxCell id="6VobQ4EpYaCgMPkBICnF-8" value="Punya form nerima custom query dari user" style="rounded=1;whiteSpace=wrap;html=1;arcSize=0;" vertex="1" parent="1">
          <mxGeometry x="270" y="400" width="120" height="60" as="geometry" />
        </mxCell>
        <mxCell id="6VobQ4EpYaCgMPkBICnF-10" value="Method buat ngasih query ke back-end" style="rounded=1;whiteSpace=wrap;html=1;arcSize=0;" vertex="1" parent="1">
          <mxGeometry x="150" y="510" width="120" height="60" as="geometry" />
        </mxCell>
        <mxCell id="6VobQ4EpYaCgMPkBICnF-11" value="" style="endArrow=classic;html=1;rounded=0;entryX=0.5;entryY=0;entryDx=0;entryDy=0;exitX=0.5;exitY=1;exitDx=0;exitDy=0;" edge="1" parent="1" source="6VobQ4EpYaCgMPkBICnF-5" target="6VobQ4EpYaCgMPkBICnF-10">
          <mxGeometry width="50" height="50" relative="1" as="geometry">
            <mxPoint x="55" y="490" as="sourcePoint" />
            <mxPoint x="105" y="440" as="targetPoint" />
            <Array as="points">
              <mxPoint x="80" y="490" />
              <mxPoint x="210" y="490" />
            </Array>
          </mxGeometry>
        </mxCell>
        <mxCell id="6VobQ4EpYaCgMPkBICnF-12" value="Pas di klik" style="text;html=1;align=center;verticalAlign=middle;whiteSpace=wrap;rounded=0;" vertex="1" parent="1">
          <mxGeometry x="80" y="490" width="60" height="30" as="geometry" />
        </mxCell>
        <mxCell id="6VobQ4EpYaCgMPkBICnF-13" value="" style="endArrow=classic;html=1;rounded=0;exitX=0.5;exitY=1;exitDx=0;exitDy=0;entryX=0.5;entryY=0;entryDx=0;entryDy=0;" edge="1" parent="1" source="6VobQ4EpYaCgMPkBICnF-8" target="6VobQ4EpYaCgMPkBICnF-10">
          <mxGeometry width="50" height="50" relative="1" as="geometry">
            <mxPoint x="270" y="590" as="sourcePoint" />
            <mxPoint x="320" y="540" as="targetPoint" />
            <Array as="points">
              <mxPoint x="330" y="490" />
              <mxPoint x="210" y="490" />
            </Array>
          </mxGeometry>
        </mxCell>
        <mxCell id="6VobQ4EpYaCgMPkBICnF-14" value="Pas submit" style="text;html=1;align=center;verticalAlign=middle;whiteSpace=wrap;rounded=0;" vertex="1" parent="1">
          <mxGeometry x="280" y="460" width="60" height="30" as="geometry" />
        </mxCell>
        <mxCell id="6VobQ4EpYaCgMPkBICnF-15" value="Front-end" style="rounded=1;whiteSpace=wrap;html=1;" vertex="1" parent="1">
          <mxGeometry x="180" y="130" width="120" height="60" as="geometry" />
        </mxCell>
        <mxCell id="6VobQ4EpYaCgMPkBICnF-16" value="" style="endArrow=classic;html=1;rounded=0;exitX=0.5;exitY=1;exitDx=0;exitDy=0;entryX=0.5;entryY=0;entryDx=0;entryDy=0;" edge="1" parent="1" source="6VobQ4EpYaCgMPkBICnF-15" target="6VobQ4EpYaCgMPkBICnF-3">
          <mxGeometry width="50" height="50" relative="1" as="geometry">
            <mxPoint x="300" y="390" as="sourcePoint" />
            <mxPoint x="350" y="340" as="targetPoint" />
          </mxGeometry>
        </mxCell>
        <mxCell id="6VobQ4EpYaCgMPkBICnF-17" value="" style="endArrow=classic;html=1;rounded=0;exitX=0.5;exitY=1;exitDx=0;exitDy=0;entryX=0.5;entryY=0;entryDx=0;entryDy=0;" edge="1" parent="1" source="6VobQ4EpYaCgMPkBICnF-10" target="6VobQ4EpYaCgMPkBICnF-19">
          <mxGeometry width="50" height="50" relative="1" as="geometry">
            <mxPoint x="300" y="560" as="sourcePoint" />
            <mxPoint x="210" y="610" as="targetPoint" />
          </mxGeometry>
        </mxCell>
        <mxCell id="6VobQ4EpYaCgMPkBICnF-19" value="Terima hasil query dan tunjukin dalem bentuk tabel kalau querynya berupa modifikasi atau get data" style="rounded=0;whiteSpace=wrap;html=1;" vertex="1" parent="1">
          <mxGeometry x="150" y="610" width="120" height="120" as="geometry" />
        </mxCell>
        <mxCell id="6VobQ4EpYaCgMPkBICnF-20" value="Punya form untuk bikin table, column, dsb." style="rounded=0;whiteSpace=wrap;html=1;" vertex="1" parent="1">
          <mxGeometry x="470" y="400" width="120" height="60" as="geometry" />
        </mxCell>
        <mxCell id="6VobQ4EpYaCgMPkBICnF-21" value="" style="endArrow=classic;html=1;rounded=0;exitX=0.5;exitY=1;exitDx=0;exitDy=0;entryX=0.5;entryY=0;entryDx=0;entryDy=0;" edge="1" parent="1" source="6VobQ4EpYaCgMPkBICnF-3" target="6VobQ4EpYaCgMPkBICnF-20">
          <mxGeometry width="50" height="50" relative="1" as="geometry">
            <mxPoint x="280" y="460" as="sourcePoint" />
            <mxPoint x="330" y="410" as="targetPoint" />
            <Array as="points">
              <mxPoint x="240" y="330" />
              <mxPoint x="530" y="330" />
            </Array>
          </mxGeometry>
        </mxCell>
        <mxCell id="6VobQ4EpYaCgMPkBICnF-22" value="" style="endArrow=classic;html=1;rounded=0;exitX=0.5;exitY=1;exitDx=0;exitDy=0;entryX=0.5;entryY=0;entryDx=0;entryDy=0;" edge="1" parent="1" source="6VobQ4EpYaCgMPkBICnF-20" target="6VobQ4EpYaCgMPkBICnF-10">
          <mxGeometry width="50" height="50" relative="1" as="geometry">
            <mxPoint x="280" y="560" as="sourcePoint" />
            <mxPoint x="330" y="510" as="targetPoint" />
            <Array as="points">
              <mxPoint x="530" y="490" />
              <mxPoint x="210" y="490" />
            </Array>
          </mxGeometry>
        </mxCell>
        <mxCell id="6VobQ4EpYaCgMPkBICnF-23" value="Pas submit" style="text;html=1;align=center;verticalAlign=middle;whiteSpace=wrap;rounded=0;" vertex="1" parent="1">
          <mxGeometry x="520" y="460" width="60" height="30" as="geometry" />
        </mxCell>
        <mxCell id="6VobQ4EpYaCgMPkBICnF-25" value="" style="endArrow=classic;html=1;rounded=0;exitX=0.5;exitY=1;exitDx=0;exitDy=0;entryX=0.5;entryY=0;entryDx=0;entryDy=0;" edge="1" parent="1" source="6VobQ4EpYaCgMPkBICnF-4" target="6VobQ4EpYaCgMPkBICnF-27">
          <mxGeometry width="50" height="50" relative="1" as="geometry">
            <mxPoint x="470" y="520" as="sourcePoint" />
            <mxPoint x="747.1428571428573" y="300" as="targetPoint" />
          </mxGeometry>
        </mxCell>
        <mxCell id="6VobQ4EpYaCgMPkBICnF-27" value="Nerima query dan jalanin di DB" style="rounded=0;whiteSpace=wrap;html=1;" vertex="1" parent="1">
          <mxGeometry x="750" y="240" width="120" height="60" as="geometry" />
        </mxCell>
        <mxCell id="6VobQ4EpYaCgMPkBICnF-28" value="" style="endArrow=classic;html=1;rounded=0;exitX=0.5;exitY=1;exitDx=0;exitDy=0;" edge="1" parent="1" source="6VobQ4EpYaCgMPkBICnF-27" target="6VobQ4EpYaCgMPkBICnF-29">
          <mxGeometry width="50" height="50" relative="1" as="geometry">
            <mxPoint x="800" y="310" as="sourcePoint" />
            <mxPoint x="760" y="400" as="targetPoint" />
          </mxGeometry>
        </mxCell>
        <mxCell id="6VobQ4EpYaCgMPkBICnF-29" value="Kasih hasil query nya dalam bentuk yang lebih dikenal dan universal, jadi lebih mudah di recognize sama front-end" style="rounded=0;whiteSpace=wrap;html=1;" vertex="1" parent="1">
          <mxGeometry x="750" y="330" width="120" height="140" as="geometry" />
        </mxCell>
      </root>
    </mxGraphModel>
  </diagram>
</mxfile>
